# xmcd
#
# Track frame offsets:
#	150
#	16358
#	37650
#	62347
#	80734
#	93485
#	112864
#	125680
#	137899
#	151658
#	164452
#	176769
#	189845
#	205032
#	228052
#	250408
#	263033
#	277964
#
# Disc length: 3881
#
# Revision: 1
# Processed by: cddbd v1.5.1PL0 Copyright (c) Steve Scherf et al.
# Submitted via: CDex 1.51
# Normalized: r0:DSETVAR1,TDELIM( - )
#
DISCID=e10f2712
DTITLE=Various Artist - Swing Time 1
DYEAR=1900
DGENRE=Jazz
TTITLE0=Glenn Miller - In the Mood
TTITLE1=Lionel Hampton - Ginger Man
TTITLE2=Buddy Rich - Moment Notice
TTITLE3=Sonny Stitt - Old Folks
TTITLE4=Sidney Bechet - Hight Society
TTITLE5=Dexter Gordon - Lullabye of Birdland
TTITLE6=Coleman Hawkins - Happy Feet
TTITLE7=Andrew Sisters - Musik Makers
TTITLE8=Duke Ellington - Jungle Jamboree
TTITLE9=Django Reinhardt - Dream Ship
TTITLE10=Gene Krupa - Moments in the Moonlight
TTITLE11=Count Basie - Sent for you Yesterday
TTITLE12=Benny Goodman - St Louis Blues
TTITLE13=Charles Mingus - Slop
TTITLE14=Stephanie Grappelli - All of Me
TTITLE15=Lionel Hampton - Hampton Stomp
TTITLE16=Glenn Miller - A String of Pearls
TTITLE17=Sidney Bechet - Groovin the Minor
EXTD=
EXTT0=
EXTT1=
EXTT2=
EXTT3=
EXTT4=
EXTT5=
EXTT6=
EXTT7=
EXTT8=
EXTT9=
EXTT10=
EXTT11=
EXTT12=
EXTT13=
EXTT14=
EXTT15=
EXTT16=
EXTT17=
PLAYORDER=
